<svg width="277" height="48" viewBox="0 0 277 48" fill="none" xmlns="http://www.w3.org/2000/svg">
<path d="M118.46 8.49C117.28 8.49 116.28 8.07 115.45 7.24C114.62 6.41 114.2 5.4 114.2 4.23C114.2 3.06 114.62 2.08 115.45 1.25C116.28 0.42 117.28 0 118.46 0C119.64 0 120.61 0.42 121.44 1.25C122.29 2.06 122.72 3.06 122.72 4.23C122.72 5.4 122.29 6.43 121.44 7.24C120.61 8.07 119.61 8.49 118.46 8.49ZM114.72 12.45V47.51H122.18V12.45H114.72Z" fill="#5E5E5E"/>
<path d="M254.7 47.4999V27.1699C254.7 25.1599 255.4 23.4499 256.8 22.0299C258.22 20.6099 259.94 19.8999 261.97 19.8999C264 19.8999 265.69 20.6099 267.11 22.0299C268.51 23.4499 269.21 25.1599 269.21 27.1699V47.4999H276.67V27.1699C276.67 23.1099 275.23 19.6399 272.35 16.7599C269.47 13.8799 266.01 12.4399 261.97 12.4399C257.93 12.4399 254.44 13.8799 251.56 16.7599C248.68 19.6399 247.24 23.1099 247.24 27.1699V47.4999H254.7Z" fill="#5E5E5E"/>
<path d="M225.46 12.49H193.06C183.57 12.49 175.87 20.19 175.87 29.68V30.32C175.87 39.81 183.57 47.51 193.06 47.51H225.46C234.95 47.51 242.65 39.81 242.65 30.32V29.68C242.65 20.19 234.95 12.49 225.46 12.49ZM234.19 30.18C234.19 35.62 229.78 40.04 224.33 40.04H194.18C188.74 40.04 184.32 35.63 184.32 30.18V29.81C184.32 24.37 188.73 19.95 194.18 19.95H224.33C229.77 19.95 234.19 24.36 234.19 29.81V30.18Z" fill="#5E5E5E"/>
<path d="M166.95 8.49C168.11 8.49 169.1 8.07 169.93 7.24C170.78 6.43 171.21 5.42 171.21 4.23C171.21 3.04 170.78 2.06 169.93 1.25C169.1 0.42 168.1 0 166.95 0C165.8 0 164.77 0.42 163.94 1.25C163.11 2.08 162.69 3.08 162.69 4.23C162.69 5.38 163.11 6.41 163.94 7.24C164.77 8.07 165.78 8.49 166.95 8.49Z" fill="#5E5E5E"/>
<path d="M170.67 12.45H163.21V47.5099H170.67V12.45Z" fill="#5E5E5E"/>
<path d="M68.94 17.59C65.51 14.16 61.38 12.45 56.55 12.45C51.72 12.45 47.59 14.16 44.16 17.59C40.73 21.02 39.02 25.15 39.02 29.9799C39.02 34.8099 40.73 38.9399 44.16 42.3699C47.59 45.7999 51.72 47.5099 56.55 47.5099C60.95 47.5099 64.31 46.28 66.62 43.83V47.5099H74.08V29.9799C74.08 25.15 72.37 21.02 68.94 17.59ZM63.67 37.13C61.72 39.08 59.35 40.0499 56.55 40.0499C53.75 40.0499 51.37 39.08 49.4 37.13C47.45 35.16 46.48 32.7799 46.48 29.9799C46.48 27.1799 47.45 24.83 49.4 22.86C51.37 20.89 53.75 19.91 56.55 19.91C59.35 19.91 61.7 20.89 63.67 22.86C65.64 24.83 66.62 27.1999 66.62 29.9799C66.62 32.7599 65.64 35.16 63.67 37.13Z" fill="#5E5E5E"/>
<path d="M102.76 12.45L92.0898 37.1899C91.2798 35.3399 90.8698 34.3799 90.8698 34.2999C90.2498 32.8699 85.7198 22.44 81.4298 12.45H73.3198L86.9098 43.9799C87.8198 46.3299 89.5598 47.5099 92.1098 47.5099C94.6598 47.5099 96.3498 46.3299 97.2798 43.9799L110.85 12.45H102.75H102.76Z" fill="#5E5E5E"/>
<path d="M27.6 6.79004V15.49C25.29 13.46 21.93 12.45 17.53 12.45C12.7 12.45 8.57 14.16 5.14 17.59C1.71 21.02 0 25.15 0 29.98C0 34.81 1.71 38.94 5.14 42.37C8.57 45.8 12.7 47.51 17.53 47.51C22.36 47.51 26.46 45.81 29.89 42.4C33.32 39.01 35.04 34.9 35.06 30.07V6.79004H27.6ZM24.65 37.19C22.68 39.16 20.31 40.14 17.53 40.14C14.75 40.14 12.35 39.16 10.38 37.19C8.43 35.22 7.46 32.85 7.46 30.07C7.46 27.29 8.43 24.89 10.38 22.92C12.35 20.95 14.73 19.97 17.53 19.97C20.33 19.97 22.68 20.95 24.65 22.92C26.62 24.89 27.6 27.27 27.6 30.07C27.6 32.87 26.62 35.22 24.65 37.19Z" fill="#5E5E5E"/>
<path d="M155.28 13.5299C154.55 12.7999 153.69 12.4399 152.7 12.4399H137.73C134.81 12.4399 132.31 13.4799 130.23 15.5699C128.16 17.6399 127.13 20.1299 127.13 23.0399C127.13 25.9499 127.97 28.3599 129.65 29.9999C130.38 30.7199 131.35 31.3499 132.57 31.8999C133.3 32.2299 136.41 32.9799 137.98 33.1199C140.59 33.3599 144.34 33.6699 146.71 33.8499C149.26 34.0399 149.93 34.5899 150.2 34.8899C150.67 35.4199 150.91 36.0699 150.91 36.8399C150.91 37.7099 150.67 38.5299 150 39.0899C149.03 39.9099 147 39.7999 147 39.7999L131.5 39.9999H131.47C130.48 39.9999 129.62 40.3599 128.89 41.0899C128.16 41.7799 127.8 42.6399 127.8 43.6699V43.7599C127.8 44.7899 128.16 45.6499 128.89 46.3399C129.62 47.0699 130.48 47.4299 131.47 47.4299H147.44C150.36 47.4299 152.86 46.3899 154.94 44.2999C157.01 42.2299 158.04 39.7399 158.04 36.8299C158.04 35.4899 157.87 34.2799 157.53 33.2099C157.11 31.8899 155.56 28.2099 149.72 27.6399C148.15 27.4899 146.57 27.2599 144.66 27.1199C141.91 26.9299 140.48 26.7699 139.12 26.5699C137.33 26.3099 136.33 25.9299 136.02 25.7699C134.84 25.1599 134.26 24.2499 134.26 23.0399C134.26 22.1699 134.56 21.4199 135.17 20.7899C135.78 20.1799 136.53 19.8799 137.42 19.8799H152.7C153.69 19.8799 154.55 19.5199 155.28 18.7899C156.01 18.0999 156.37 17.2399 156.37 16.2099V16.1199C156.37 15.0899 156.01 14.2299 155.28 13.5399V13.5299Z" fill="#5E5E5E"/>
</svg>
